<svg width="257" height="257" viewBox="0 0 257 257" fill="none" xmlns="http://www.w3.org/2000/svg">
<g clip-path="url(#clip0)">
<path d="M104.8 240.28V169.88L43.36 205.08L20.32 164.76L81.12 129.56L20.32 94.36L43.36 54.04L104.8 89.24V18.84H151.52V89.24L212.32 54.04L235.36 94.36L174.56 129.56L235.36 164.76L212.32 205.08L151.52 169.88V240.28H104.8Z" fill="#00CBEC"/>
<path d="M186.673 166.715L186.238 167.392L186.807 167.961L235.584 216.787L214.662 237.595L165.238 189.23L164.678 188.682L164.012 189.095C153.08 195.87 140.087 199.81 126.3 199.81C86.6806 199.81 55 168.295 55 128.905C55 89.5153 86.6806 58 126.3 58C165.92 58 197.601 89.5153 197.601 128.905C197.601 142.776 193.638 155.851 186.673 166.715ZM126.3 87.9579C115.384 87.9579 104.914 92.2706 97.1929 99.9491C89.472 107.628 85.1335 118.044 85.1335 128.905C85.1335 139.767 89.472 150.183 97.1929 157.861C104.914 165.54 115.384 169.852 126.3 169.852C137.217 169.852 147.687 165.54 155.408 157.861C163.129 150.183 167.467 139.767 167.467 128.905C167.467 118.044 163.129 107.628 155.408 99.9491C147.687 92.2706 137.217 87.9579 126.3 87.9579Z" fill="#A112FF" stroke="white" stroke-width="2"/>
</g>
<defs>
<clipPath id="clip0">
<rect width="257" height="257" fill="white"/>
</clipPath>
</defs>
</svg>
